<svg width="284" height="76" viewBox="0 0 284 76" fill="none" xmlns="http://www.w3.org/2000/svg">
<path d="M143.323 47.1145H139.733V39.1985H139.696L138.979 40.7635L135.111 47.2998H135.057L131.19 40.7635L130.472 39.1985H130.435V47.115H126.845V32.1838H129.79L134.486 40.1188L135.057 41.4262H135.094L135.628 40.1188L140.341 32.1833H143.323V47.1145H143.323Z" fill="#404041"/>
<path d="M163.098 47.097H159.177L157.574 43.8747L157.796 43.5434H150.56L150.78 43.8747L149.215 47.097H145.257L152.676 32.1833H155.714L163.098 47.097ZM156.249 40.7446L155.881 40.4137L154.739 38.0938L154.187 36.5845L153.635 38.0938L152.512 40.4137L152.125 40.7446H156.249Z" fill="#404041"/>
<path d="M180.165 47.097H176.152L174.035 43.1383C173.482 42.1258 172.727 41.6474 171.052 41.6474H168.308L168.621 41.9604V47.0975H165.031V32.1838H172.488C175.507 32.1838 178.416 33.6572 178.416 36.9343C178.416 38.3883 177.256 39.8791 175.967 40.4695V40.5059C176.464 40.7451 177.016 41.2428 177.439 42.0336L180.165 47.097ZM172.489 35.3319H168.29L168.622 35.6633V38.4247L168.29 38.7565H172.286C174.127 38.7565 174.771 37.8362 174.771 37.0624C174.771 36.0499 174.072 35.3319 172.489 35.3319Z" fill="#404041"/>
<path d="M194.527 35.3319H189.188L189.372 35.6632V47.097H185.782V35.6632L185.966 35.3319H180.627V32.1833H194.527V35.3319Z" fill="#404041"/>
<path d="M203.807 47.2809C198.634 47.2809 195.909 44.1508 195.909 39.7137C195.909 35.332 198.634 32 203.807 32C209.017 32 211.724 35.314 211.724 39.7137C211.724 44.1508 208.907 47.2809 203.807 47.2809ZM203.826 35.1665C200.805 35.1665 199.554 37.0261 199.554 39.7137C199.554 42.3466 200.805 44.1144 203.826 44.1144C206.864 44.1144 208.078 42.3471 208.078 39.7137C208.078 37.0814 206.845 35.1665 203.826 35.1665Z" fill="#404041"/>
<path d="M228.479 47.097H225.515L219.291 39.7505L218.021 37.8726H217.984V47.0965H214.394V32.1838H217.358L223.692 39.5846L224.851 41.3156H224.889V32.1833H228.479V47.097Z" fill="#404041"/>
<path d="M235.476 47.097H231.886V32.1838H235.476V47.097Z" fill="#404041"/>
<path d="M60.2319 34.593C59.9868 34.9415 59.7539 35.2975 59.5251 35.6555C59.5179 35.6696 59.5088 35.6836 59.4997 35.6969C59.4419 35.7824 59.3864 35.8706 59.331 35.9584C59.3287 35.9629 59.3268 35.9675 59.3241 35.9698C60.0336 36.3418 60.5185 37.0854 60.5185 37.9423C60.5185 39.1713 59.5229 40.1695 58.2939 40.1695C57.9269 40.1695 57.578 40.0791 57.2729 39.9202C57.2706 39.9202 57.2706 39.9202 57.2706 39.9202C57.2455 39.978 57.222 40.0354 57.1992 40.0962C57.1319 40.2505 57.0696 40.4051 57.0073 40.5624C55.6674 43.9118 54.9283 47.562 54.9283 51.3856H67.523C67.523 47.2569 69.0267 43.4774 71.5103 40.5503C71.5704 40.4811 71.6304 40.4123 71.6927 40.3424C71.8751 40.1323 72.0625 39.9244 72.2563 39.7257C69.2091 36.5747 64.9493 34.604 60.2319 34.593ZM56.8081 43.3022C56.8081 42.6179 57.3626 42.0665 58.0466 42.0665C58.7279 42.0665 59.2823 42.6179 59.2823 43.3022C59.2823 43.9859 58.7279 44.538 58.0466 44.538C57.3626 44.538 56.8081 43.9859 56.8081 43.3022ZM58.8712 48.5941C58.3145 48.5941 57.8661 48.1442 57.8661 47.589C57.8661 47.0354 58.3141 46.5847 58.8712 46.5847C59.4256 46.5847 59.8763 47.0354 59.8763 47.589C59.8763 48.1442 59.4256 48.5941 58.8712 48.5941ZM62.4983 43.5496C61.6319 43.5496 60.9323 42.8466 60.9323 41.9829C60.9323 41.1169 61.6319 40.4169 62.4983 40.4169C63.3647 40.4169 64.0646 41.1169 64.0646 41.9829C64.0642 42.8466 63.3643 43.5496 62.4983 43.5496Z" fill="url(#paint0_linear_3_257)"/>
<path d="M111.624 51.3848C111.624 45.1414 109.652 39.3593 106.32 34.5938C101.603 34.604 97.3435 36.5751 94.2963 39.7264C97.2196 42.7493 99.0288 46.8575 99.0288 51.3848H111.624Z" fill="url(#paint1_linear_3_257)"/>
<path d="M94.2963 24.615C89.4456 26.8095 85.2945 30.2728 82.2727 34.5938C78.9401 39.3594 76.9687 45.1415 76.9687 51.3849H89.5638C89.5638 46.8575 91.373 42.7494 94.2963 39.7265C97.3439 36.5751 101.603 34.6041 106.32 34.5938C103.299 30.2728 99.1474 26.8095 94.2963 24.615Z" fill="url(#paint2_linear_3_257)"/>
<path d="M82.2726 34.5938C82.5922 34.1366 82.9312 33.6947 83.2758 33.2573C80.3643 29.5599 76.5928 26.5777 72.2555 24.615C67.4044 26.8095 63.2533 30.2728 60.2315 34.5938C64.9488 34.604 69.2079 36.5751 72.2555 39.7264C75.0876 42.6551 76.8683 46.6037 76.9773 50.9638C77.0636 44.8823 79.0157 39.2514 82.2726 34.5938Z" fill="url(#paint3_linear_3_257)"/>
<path d="M106.322 35.6987L107.052 35.6972C106.815 35.324 106.573 34.955 106.32 34.5933C101.603 34.6035 97.3435 36.5746 94.2963 39.7259C94.5539 39.9923 94.7998 40.2701 95.0395 40.5528C95.057 40.5334 95.0722 40.5129 95.0905 40.4943C98.0723 37.411 102.061 35.7082 106.322 35.6987Z" fill="url(#paint4_linear_3_257)"/>
<path d="M82.2726 34.5938C82.5922 34.1367 82.9312 33.6948 83.2758 33.2574C83.0417 32.9606 82.7932 32.6756 82.5481 32.3879C82.1392 32.8994 81.7433 33.4227 81.3671 33.9611C78.709 37.7608 76.9804 42.0392 76.2549 46.5338C76.6824 47.9425 76.9389 49.4252 76.9773 50.9639C77.0636 44.8823 79.0156 39.2515 82.2726 34.5938Z" fill="url(#paint5_linear_3_257)"/>
<path d="M60.2314 34.5938C59.9783 34.9555 59.7363 35.3245 59.4991 35.6976L60.2291 35.6992C64.4904 35.7087 68.4793 37.4114 71.4612 40.4948C71.479 40.5134 71.4942 40.5343 71.5121 40.5533C71.7519 40.2706 71.9973 39.9928 72.2554 39.7264C69.2078 36.5751 64.9487 34.604 60.2314 34.5938Z" fill="url(#paint6_linear_3_257)"/>
<path d="M61.0934 38.1479C61.0934 39.6698 59.8553 40.9086 58.3327 40.9086C57.8474 40.9086 57.4017 40.7885 57.0065 40.562C57.0688 40.4047 57.1311 40.2504 57.1984 40.0958C57.2216 40.035 57.2447 39.9776 57.2698 39.9198C57.2789 39.8948 57.2903 39.8685 57.3021 39.8457C57.293 39.8689 57.2816 39.8948 57.2721 39.9198C57.5769 40.0787 57.9257 40.1691 58.2932 40.1691C59.5221 40.1691 60.5177 39.1709 60.5177 37.9419C60.5177 37.0851 60.0328 36.3414 59.3233 35.9694C59.3233 35.9671 59.3214 35.9694 59.3214 35.9694C59.3233 35.9644 59.326 35.9603 59.3302 35.958C59.3902 35.8565 59.4552 35.7547 59.5198 35.6528C59.5221 35.6528 59.5221 35.6551 59.5244 35.6551C59.5521 35.6692 59.5776 35.6806 59.6026 35.6965C60.4884 36.1567 61.0934 37.0809 61.0934 38.1479Z" fill="url(#paint7_linear_3_257)"/>
<path d="M57.3034 39.8457C57.294 39.8692 57.2822 39.8954 57.2724 39.9208C57.2701 39.9208 57.2701 39.9208 57.2701 39.9208C57.2799 39.8954 57.2912 39.8692 57.3034 39.8457Z" fill="white"/>
<path d="M51.4528 45.3842C52.4364 45.3842 53.2338 44.5867 53.2338 43.6031C53.2338 42.6194 52.4364 41.822 51.4528 41.822C50.4691 41.822 49.6717 42.6194 49.6717 43.6031C49.6717 44.5867 50.4691 45.3842 51.4528 45.3842Z" fill="url(#paint8_linear_3_257)"/>
<path d="M49.4304 39.7006C50.2954 39.7006 50.9967 38.9993 50.9967 38.1342C50.9967 37.2692 50.2954 36.5679 49.4304 36.5679C48.5653 36.5679 47.864 37.2692 47.864 38.1342C47.864 38.9993 48.5653 39.7006 49.4304 39.7006Z" fill="url(#paint9_linear_3_257)"/>
<path d="M54.0121 40.1252C54.6952 40.1252 55.249 39.5714 55.249 38.8883C55.249 38.2051 54.6952 37.6514 54.0121 37.6514C53.329 37.6514 52.7752 38.2051 52.7752 38.8883C52.7752 39.5714 53.329 40.1252 54.0121 40.1252Z" fill="url(#paint10_linear_3_257)"/>
<path d="M55.1394 35.6757C55.6945 35.6757 56.1445 35.2257 56.1445 34.6706C56.1445 34.1155 55.6945 33.6655 55.1394 33.6655C54.5843 33.6655 54.1343 34.1155 54.1343 34.6706C54.1343 35.2257 54.5843 35.6757 55.1394 35.6757Z" fill="url(#paint11_linear_3_257)"/>
<defs>
<linearGradient id="paint0_linear_3_257" x1="66.792" y1="31.6151" x2="62.0837" y2="49.3093" gradientUnits="userSpaceOnUse">
<stop stop-color="#A5CD39"/>
<stop offset="1" stop-color="#009345"/>
</linearGradient>
<linearGradient id="paint1_linear_3_257" x1="99.3265" y1="27.7499" x2="104.521" y2="50.8772" gradientUnits="userSpaceOnUse">
<stop stop-color="#FCB940"/>
<stop offset="1" stop-color="#EE4036"/>
</linearGradient>
<linearGradient id="paint2_linear_3_257" x1="94.9503" y1="22.5584" x2="90.6216" y2="47.6648" gradientUnits="userSpaceOnUse">
<stop stop-color="#00ADE5"/>
<stop offset="1" stop-color="#223C8C"/>
</linearGradient>
<linearGradient id="paint3_linear_3_257" x1="71.8648" y1="23.5707" x2="71.7148" y2="37.5266" gradientUnits="userSpaceOnUse">
<stop stop-color="#652D90"/>
<stop offset="1" stop-color="#B31E8D"/>
</linearGradient>
<linearGradient id="paint4_linear_3_257" x1="99.4622" y1="29.7999" x2="100.943" y2="39.465" gradientUnits="userSpaceOnUse">
<stop stop-color="#FCB940"/>
<stop offset="1" stop-color="#EE4036"/>
</linearGradient>
<linearGradient id="paint5_linear_3_257" x1="78.8987" y1="28.9609" x2="80.3618" y2="47.4183" gradientUnits="userSpaceOnUse">
<stop stop-color="#652D90"/>
<stop offset="1" stop-color="#B31E8D"/>
</linearGradient>
<linearGradient id="paint6_linear_3_257" x1="72.3069" y1="29.6816" x2="65.5538" y2="38.0104" gradientUnits="userSpaceOnUse">
<stop stop-color="#A5CD39"/>
<stop offset="1" stop-color="#009345"/>
</linearGradient>
<linearGradient id="paint7_linear_3_257" x1="62.5337" y1="35.4518" x2="57.2563" y2="40.3169" gradientUnits="userSpaceOnUse">
<stop stop-color="#A5CD39"/>
<stop offset="1" stop-color="#009345"/>
</linearGradient>
<linearGradient id="paint8_linear_3_257" x1="48.0564" y1="34.3035" x2="53.2506" y2="48.5255" gradientUnits="userSpaceOnUse">
<stop stop-color="#A5CD39"/>
<stop offset="1" stop-color="#009345"/>
</linearGradient>
<linearGradient id="paint9_linear_3_257" x1="48.0341" y1="34.3118" x2="53.2279" y2="48.5329" gradientUnits="userSpaceOnUse">
<stop stop-color="#A5CD39"/>
<stop offset="1" stop-color="#009345"/>
</linearGradient>
<linearGradient id="paint10_linear_3_257" x1="51.8344" y1="32.9251" x2="57.0276" y2="47.1447" gradientUnits="userSpaceOnUse">
<stop stop-color="#A5CD39"/>
<stop offset="1" stop-color="#009345"/>
</linearGradient>
<linearGradient id="paint11_linear_3_257" x1="54.1877" y1="32.0636" x2="59.3824" y2="46.2871" gradientUnits="userSpaceOnUse">
<stop stop-color="#A5CD39"/>
<stop offset="1" stop-color="#009345"/>
</linearGradient>
</defs>
</svg>
