<svg width="284" height="82" viewBox="0 0 284 82" fill="none" xmlns="http://www.w3.org/2000/svg">
<path d="M123.959 41.3906H118.56L118.902 41.7087V47.3991H115.274V30.2004H123.959C128.055 30.2004 130.466 32.5153 130.466 35.785C130.466 38.9273 128.055 41.3906 123.959 41.3906ZM123.959 33.428H118.56L118.902 33.7461V37.8228L118.56 38.1626H123.959C125.986 38.1626 126.775 37.1643 126.775 35.7846C126.775 34.3406 125.986 33.428 123.959 33.428Z" fill="#EC1C24"/>
<path d="M140.963 37.1011H139.896C137.379 37.1011 136.227 38.2692 136.227 40.7747V47.3991H132.663V34.0224H136.227V35.8059H136.27C137.037 34.5956 138.36 33.874 140.174 33.874H140.964V37.1011H140.963Z" fill="#EC1C24"/>
<path d="M149.028 47.6115C144.249 47.6115 141.88 44.5963 141.88 40.7108C141.88 36.8256 144.249 33.8101 149.006 33.8101C153.807 33.8101 156.175 36.8039 156.175 40.7108C156.175 44.575 153.765 47.6115 149.028 47.6115ZM149.028 36.8678C146.511 36.8678 145.444 38.3967 145.444 40.7108C145.444 43.0043 146.553 44.5754 149.028 44.5754C151.525 44.5754 152.613 43.0043 152.613 40.7108C152.613 38.4176 151.524 36.8678 149.028 36.8678Z" fill="#EC1C24"/>
<path d="M176.125 47.3991H173.565V35.7637H173.522L172.583 38.0355L167.399 47.6332H167.334L162.128 37.972L161.232 35.785H161.19V47.3995H158.629V30.2004H160.826L166.524 40.9023L167.377 42.9408H167.42L168.252 40.9023L173.97 30.2004H176.125V47.3991Z" fill="#182932"/>
<path d="M191.85 41.7937H181.032L181.289 42.0483C181.673 44.129 183.017 45.4033 185.449 45.4033C186.857 45.4033 188.031 44.8937 189.097 43.8957L190.805 45.5944C189.289 46.9748 187.498 47.6116 185.449 47.6116C180.819 47.6116 178.686 44.6604 178.686 40.817C178.686 36.7617 181.118 33.8105 185.342 33.8105C189.802 33.8105 191.914 36.8257 191.914 40.817C191.914 41.1356 191.893 41.4538 191.85 41.7937ZM189.567 39.628L189.311 39.3734C188.927 37.3345 187.647 36.018 185.342 36.018C182.974 36.018 181.758 37.3985 181.332 39.3734L181.054 39.628H189.567Z" fill="#182932"/>
<path d="M206.701 47.3991H204.204V46.0826H204.161C203.243 47.081 201.857 47.6115 200.107 47.6115C195.861 47.6115 193.728 44.7239 193.728 40.7748C193.728 36.7617 195.861 33.8101 200.107 33.8101C201.771 33.8101 203.265 34.4468 204.161 35.4452H204.204V29.5637H206.701V47.3991ZM200.3 36.061C197.398 36.061 196.224 38.0774 196.224 40.753C196.224 43.4287 197.355 45.3819 200.3 45.3819C203.244 45.3819 204.375 43.4283 204.375 40.753C204.375 38.0565 203.266 36.061 200.3 36.061Z" fill="#182932"/>
<path d="M211.266 32.5789C210.327 32.5789 209.772 31.9208 209.772 31.0073C209.772 30.0938 210.349 29.4358 211.266 29.4358C212.205 29.4358 212.76 30.0938 212.76 31.0073C212.76 31.9208 212.184 32.5789 211.266 32.5789ZM212.503 47.3991H210.007V34.0225H212.503V47.3991Z" fill="#182932"/>
<path d="M227.439 47.3991H224.942V46.3802H224.899C223.747 47.2933 222.275 47.6332 220.824 47.6332C218.093 47.6332 215.063 46.6135 215.063 43.4073C215.063 39.2245 220.547 38.9699 223.939 38.9699C224.281 38.9699 224.942 38.9912 225.198 39.0121L224.942 38.7579C224.921 38.7153 224.942 38.5242 224.921 38.5033C224.793 36.719 223.363 36.0614 221.507 36.0614C220.142 36.0614 218.605 36.3586 217.431 37.3348L215.789 35.6575C217.602 34.2565 219.416 33.8318 221.507 33.8318C224.43 33.8318 227.439 34.9572 227.439 38.7788V47.3991H227.439ZM225.198 41.1564C224.964 41.1564 224.366 41.1142 224.046 41.1142C223.427 41.1142 222.681 41.1142 221.912 41.1564C221.144 41.1991 220.334 41.3049 219.629 41.4746C218.349 41.7932 217.539 42.3881 217.539 43.4069C217.539 44.9998 219.48 45.4028 220.824 45.4028C222.083 45.4028 224.942 45.1269 224.942 43.4069V41.411L225.198 41.1564Z" fill="#182932"/>
<path d="M95.2678 36.7479C82.3396 36.4236 80.3736 14.5706 57.8355 19.8858C81.753 17.7956 79.9982 51.5226 95.2678 36.7479Z" fill="url(#paint0_radial_3_300)"/>
<path d="M95.2764 27.0534C88.4636 20.0695 66.5876 9.54193 57.8718 19.8419C57.8594 19.8571 57.8545 19.8813 57.8355 19.8854C80.3472 14.9855 81.6887 36.6667 95.2678 36.7475C95.2793 36.7475 95.2892 36.7233 95.2995 36.711C98.0999 33.5667 98.2964 30.1526 95.2764 27.0534Z" fill="url(#paint1_linear_3_300)"/>
<path d="M99.3517 34.5527C89.2112 56.211 60.7382 37.834 65.9608 58.3823C73.0134 47.2873 92.8433 56.7177 99.3517 34.5527Z" fill="url(#paint2_radial_3_300)"/>
<path d="M99.3707 34.606C99.3645 34.588 99.3456 34.5708 99.3517 34.5527C92.3597 56.4041 72.8206 46.7203 65.9608 58.3823C65.955 58.3918 65.9707 58.4123 65.9756 58.427C67.313 62.4131 70.1863 64.2905 74.3924 63.2363C83.8766 60.8579 103.976 47.2681 99.3707 34.606Z" fill="url(#paint3_linear_3_300)"/>
<path d="M61.7872 22.3076C67.9828 33.7704 49.8392 46.4673 65.8293 63.0001C52.0516 43.4312 82.2801 28.08 61.7872 22.3076Z" fill="url(#paint4_radial_3_300)"/>
<path d="M61.7873 22.3077C61.782 22.2978 61.756 22.3015 61.7404 22.2987C57.6035 21.4582 54.5332 22.9957 53.3471 27.1477C50.6744 36.5105 52.4518 60.6275 65.7734 62.9895C65.7928 62.9932 65.8163 62.985 65.8299 62.9998C50.309 46.0479 68.5062 34.0501 61.7873 22.3077Z" fill="url(#paint5_linear_3_300)"/>
<path d="M65.3269 47.4266C68.0304 45.0146 72.2707 44.6312 76.7269 44.2388C79.7782 43.9707 82.9975 43.6833 86.036 42.7838C82.5958 41.6649 80.1399 38.1918 77.5694 34.5456C75.8139 32.0565 73.9554 29.4227 71.6527 27.2505C72.3968 30.7847 70.6058 34.6264 68.7197 38.6633C67.4264 41.4312 66.0631 44.3528 65.3269 47.4266Z" fill="url(#paint6_radial_3_300)"/>
<defs>
<radialGradient id="paint0_radial_3_300" cx="0" cy="0" r="1" gradientUnits="userSpaceOnUse" gradientTransform="translate(74.2577 38.2066) scale(14.8339 14.7618)">
<stop stop-color="white"/>
<stop offset="0.4" stop-color="#E01B22"/>
<stop offset="0.6848" stop-color="#CD181F"/>
<stop offset="1" stop-color="#931216"/>
</radialGradient>
<linearGradient id="paint1_linear_3_300" x1="111.552" y1="-6.84708" x2="55.3419" y2="50.1325" gradientUnits="userSpaceOnUse">
<stop stop-color="white"/>
<stop offset="0.4" stop-color="#EC1C24"/>
<stop offset="0.6848" stop-color="#EC1C24"/>
<stop offset="1" stop-color="#AD1B1F"/>
</linearGradient>
<radialGradient id="paint2_radial_3_300" cx="0" cy="0" r="1" gradientUnits="userSpaceOnUse" gradientTransform="translate(74.2569 38.2177) scale(14.8334 14.7614)">
<stop stop-color="white"/>
<stop offset="0.4" stop-color="#E01B22"/>
<stop offset="0.6848" stop-color="#CD181F"/>
<stop offset="1" stop-color="#931216"/>
</radialGradient>
<linearGradient id="paint3_linear_3_300" x1="113.702" y1="20.5572" x2="74.8375" y2="59.9544" gradientUnits="userSpaceOnUse">
<stop stop-color="white"/>
<stop offset="0.4" stop-color="#EC1C24"/>
<stop offset="0.6848" stop-color="#EC1C24"/>
<stop offset="1" stop-color="#AD1B1F"/>
</linearGradient>
<radialGradient id="paint4_radial_3_300" cx="0" cy="0" r="1" gradientUnits="userSpaceOnUse" gradientTransform="translate(74.4236 38.2178) scale(14.8533 14.7812)">
<stop stop-color="white"/>
<stop offset="0.4" stop-color="#E01B22"/>
<stop offset="0.6848" stop-color="#CD181F"/>
<stop offset="1" stop-color="#931216"/>
</radialGradient>
<linearGradient id="paint5_linear_3_300" x1="79.1849" y1="10.2976" x2="57.2144" y2="49.3582" gradientUnits="userSpaceOnUse">
<stop stop-color="white"/>
<stop offset="0.4" stop-color="#EC1C24"/>
<stop offset="0.6848" stop-color="#EC1C24"/>
<stop offset="1" stop-color="#AD1B1F"/>
</linearGradient>
<radialGradient id="paint6_radial_3_300" cx="0" cy="0" r="1" gradientUnits="userSpaceOnUse" gradientTransform="translate(77.5967 21.6033) scale(32.1682 32.0121)">
<stop stop-color="white"/>
<stop offset="0.2191" stop-color="#B1B9BA"/>
<stop offset="0.5188" stop-color="#61696B"/>
<stop offset="0.5896" stop-color="#52595C"/>
<stop offset="0.7365" stop-color="#393E42"/>
<stop offset="0.8226" stop-color="#2F3438"/>
<stop offset="1" stop-color="#939C9E"/>
</radialGradient>
</defs>
</svg>
