<svg width="285" height="76" viewBox="0 0 285 76" fill="none" xmlns="http://www.w3.org/2000/svg">
<path d="M116.435 31.168C118.307 31.168 119.738 31.5115 120.73 32.1974C121.722 32.8837 122.218 33.9313 122.218 35.3411C122.218 37.1001 121.35 38.2918 119.616 38.9154C119.854 39.2027 120.122 39.5519 120.421 39.9634C120.72 40.375 121.026 40.8211 121.338 41.3014C121.649 41.7817 121.949 42.275 122.236 42.78C122.523 43.2854 122.779 43.7809 123.004 44.2681H120.365C120.128 43.8189 119.872 43.3667 119.598 42.9111C119.323 42.4562 119.046 42.0132 118.765 41.5826C118.484 41.1521 118.207 40.747 117.932 40.3663C117.658 39.9859 117.402 39.6458 117.165 39.3463C116.99 39.3585 116.841 39.3649 116.716 39.3649C116.591 39.3649 116.473 39.3649 116.36 39.3649H115.219V44.2681H112.861V31.4864C113.435 31.3618 114.046 31.2774 114.695 31.2337C115.343 31.19 115.924 31.168 116.435 31.168ZM116.603 33.2078C116.105 33.2078 115.643 33.2268 115.219 33.264V37.4554H116.248C116.822 37.4554 117.327 37.4247 117.764 37.3623C118.2 37.3 118.565 37.1875 118.858 37.0249C119.151 36.863 119.373 36.6445 119.523 36.3698C119.673 36.0958 119.748 35.7462 119.748 35.3217C119.748 34.9227 119.673 34.5857 119.523 34.3113C119.373 34.037 119.158 33.8188 118.877 33.6562C118.597 33.4943 118.263 33.3792 117.876 33.3104C117.489 33.242 117.065 33.2078 116.603 33.2078Z" fill="#404041"/>
<path d="M124.838 44.2677V31.2991H133.165V33.3017H127.196V36.5017H132.51V38.467H127.196V42.2659H133.615V44.2681H124.838V44.2677Z" fill="#404041"/>
<path d="M144.712 44.2677C144.536 43.7563 144.355 43.2512 144.168 42.7519C143.98 42.2526 143.799 41.7411 143.623 41.2171H138.145C137.97 41.7411 137.792 42.256 137.611 42.761C137.429 43.2664 137.251 43.7688 137.076 44.2674H134.624C135.11 42.8823 135.571 41.6039 136.007 40.4309C136.444 39.2586 136.87 38.1478 137.288 37.0998C137.706 36.0518 138.12 35.0543 138.531 34.1054C138.943 33.1577 139.367 32.2217 139.803 31.2983H142.054C142.491 32.2217 142.915 33.1577 143.327 34.1054C143.738 35.0543 144.153 36.0518 144.571 37.0998C144.989 38.1478 145.42 39.2586 145.862 40.4309C146.305 41.6039 146.77 42.8823 147.257 44.2674H144.712V44.2677ZM140.885 33.8067C140.597 34.4679 140.27 35.2724 139.902 36.2209C139.534 37.169 139.151 38.1984 138.751 39.3087H143.018C142.619 38.1984 142.233 37.1629 141.858 36.2022C141.484 35.2416 141.159 34.4428 140.885 33.8067Z" fill="#404041"/>
<path d="M157.081 42.2275V44.2677H148.885V31.2991H151.242V42.2279H157.081V42.2275Z" fill="#404041"/>
<path d="M163.238 44.2677V31.2991H171.566V33.3017H165.595V36.5017H170.91V38.467H165.595V42.2659H172.015V44.2681H163.238V44.2677Z" fill="#404041"/>
<path d="M177.348 42.5087C178.196 42.5087 178.814 42.3654 179.201 42.0781C179.587 41.7912 179.781 41.3862 179.781 40.8618C179.781 40.5505 179.715 40.2819 179.584 40.0573C179.452 39.8327 179.266 39.6302 179.022 39.4489C178.779 39.268 178.482 39.0997 178.134 38.9435C177.784 38.7877 177.385 38.635 176.936 38.4849C176.487 38.3234 176.053 38.1451 175.635 37.9521C175.217 37.7591 174.85 37.5185 174.531 37.2316C174.213 36.9451 173.957 36.602 173.764 36.2026C173.57 35.8032 173.474 35.3229 173.474 34.7612C173.474 33.5889 173.879 32.6686 174.69 32.0013C175.501 31.3336 176.605 31 178.002 31C178.813 31 179.534 31.0904 180.164 31.2713C180.793 31.4526 181.289 31.6487 181.651 31.8607L180.922 33.7694C180.497 33.5323 180.032 33.3514 179.527 33.2268C179.022 33.1022 178.501 33.0395 177.965 33.0395C177.328 33.0395 176.833 33.1706 176.477 33.4324C176.121 33.6946 175.944 34.0624 175.944 34.5363C175.944 34.8236 176.002 35.0698 176.122 35.2754C176.24 35.4817 176.409 35.6653 176.627 35.8275C176.845 35.9902 177.101 36.1395 177.394 36.2767C177.687 36.4142 178.008 36.5453 178.358 36.6696C178.969 36.8946 179.515 37.1218 179.995 37.3528C180.476 37.5839 180.881 37.8582 181.212 38.1759C181.542 38.4944 181.795 38.8687 181.97 39.2988C182.144 39.7294 182.231 40.2507 182.231 40.8614C182.231 42.0344 181.816 42.9423 180.987 43.5841C180.157 44.2274 178.944 44.5481 177.347 44.5481C176.811 44.5481 176.321 44.5139 175.879 44.4452C175.436 44.3768 175.043 44.2924 174.699 44.1928C174.356 44.0933 174.06 43.9903 173.811 43.8839C173.561 43.7786 173.361 43.6814 173.211 43.594L173.904 41.6666C174.241 41.8536 174.696 42.0405 175.27 42.2279C175.844 42.4152 176.537 42.5087 177.348 42.5087Z" fill="#404041"/>
<path d="M193.348 31.2991V33.3389H189.362V44.2677H186.985V33.3389H183V31.2991H193.348Z" fill="#404041"/>
<path d="M202.705 44.2677C202.529 43.7563 202.348 43.2512 202.16 42.7519C201.972 42.2526 201.791 41.7411 201.616 41.2171H196.138C195.964 41.7411 195.785 42.256 195.603 42.761C195.422 43.2664 195.244 43.7688 195.069 44.2674H192.617C193.103 42.8823 193.564 41.6039 194.001 40.4309C194.437 39.2586 194.864 38.1478 195.282 37.0998C195.7 36.0518 196.113 35.0543 196.525 34.1054C196.936 33.1577 197.36 32.2217 197.796 31.2983H200.047C200.484 32.2217 200.908 33.1577 201.32 34.1054C201.732 35.0543 202.147 36.0518 202.564 37.0998C202.983 38.1478 203.413 39.2586 203.856 40.4309C204.299 41.6039 204.763 42.8823 205.25 44.2674H202.705V44.2677ZM198.878 33.8067C198.591 34.4679 198.263 35.2724 197.895 36.2209C197.527 37.169 197.143 38.1984 196.744 39.3087H201.011C200.611 38.1984 200.225 37.1629 199.851 36.2022C199.476 35.2416 199.152 34.4428 198.878 33.8067Z" fill="#404041"/>
<path d="M214.85 31.2991V33.3389H210.864V44.2677H208.487V33.3389H204.502V31.2991H214.85Z" fill="#404041"/>
<path d="M216.647 44.2677V31.2991H224.974V33.3017H219.005V36.5017H224.319V38.467H219.005V42.2659H225.424V44.2681H216.647V44.2677Z" fill="#404041"/>
<path d="M60.787 25.9955V51.006L81.4758 62.5097V55.9863V27.9753L74.3367 34.5942V52.0476L72.6237 51.1147V35.9789L68.2134 39.8936V48.7115L66.4369 47.7444V29.2574L82.4467 20.0139V13.4905L60.787 25.9955Z" fill="#25A9E0"/>
<path d="M82.4467 13.4905V20.0139L98.4568 29.2574V47.7444L96.6803 48.7115V39.8936L92.2697 35.9789V51.1147L90.557 52.0476V34.5942L83.4176 27.9753V55.9863V62.5097L104.106 51.006V25.9955L82.4467 13.4905Z" fill="#1B75BB"/>
</svg>

