<svg width="284" height="75" viewBox="0 0 284 75" fill="none" xmlns="http://www.w3.org/2000/svg">
<path d="M134.732 47.0988C131.327 47.0988 128.04 46.0431 125.629 43.7448L128.419 40.9765C130.381 42.736 132.651 43.5565 134.874 43.5565C138.018 43.5565 139.153 42.5718 139.153 41.5161C139.153 40.9068 138.609 39.9681 136.103 39.3584C135.678 39.2646 133.006 38.608 132.557 38.4906C129.152 37.6225 126.102 36.3561 126.102 33.1424C126.102 30.1165 129.01 27.6299 134.496 27.6299C137.924 27.6299 140.761 28.7793 142.842 30.8901L140.028 33.6584C138.704 32.1573 136.671 31.1721 134.448 31.1721C131.327 31.1721 130.192 32.1573 130.192 33.0483C130.192 33.8459 131.067 34.3383 134.164 35.1123C134.59 35.2296 136.812 35.7925 137.262 35.8863C141.257 36.8481 143.244 38.9121 143.244 41.4453C143.244 44.3778 140.642 47.0988 134.732 47.0988Z" fill="#404041"/>
<path d="M157.03 44.8704C155.493 46.3716 154.027 47.0987 152.159 47.0987C148.731 47.0987 147.076 45.3396 147.076 41.8911V35.5817L147.265 35.2299H145.089V32.0871H147.265L147.076 31.7353V29.9758L151.024 27.8882V31.7353L150.811 32.0871H155.422V35.2299H150.811L151.024 35.5817V41.8914C151.024 43.1113 151.639 43.7447 152.513 43.7447C153.317 43.7447 153.956 43.3926 154.712 42.5717L157.03 44.8704Z" fill="#404041"/>
<path d="M173.747 46.8874H169.799V45.5978H169.752C168.782 46.5589 167.245 47.0989 165.614 47.0989C161.098 47.0989 159.064 44.7297 159.088 41.094V32.0869H163.036V40.8829C163.036 42.666 163.793 43.7209 166.205 43.7209C168.356 43.7209 169.799 42.666 169.799 40.7183V32.0869H173.747V46.8874Z" fill="#404041"/>
<path d="M192.428 46.8875H188.48V45.8086H188.432C187.534 46.6063 186.021 47.0986 184.271 47.0986C179.329 47.0986 176.871 43.8853 176.871 39.4985C176.871 35.1121 179.258 31.8519 184.294 31.8519C185.973 31.8519 187.581 32.3911 188.432 33.236H188.48V27.1606H192.428V46.8875ZM184.743 35.2299C181.953 35.2299 180.818 36.8716 180.818 39.4989C180.818 42.1258 181.929 43.721 184.743 43.721C187.557 43.721 188.668 42.1029 188.668 39.4989C188.668 36.8716 187.58 35.2299 184.743 35.2299Z" fill="#404041"/>
<path d="M198.341 31.1015C197.064 31.1015 196.212 30.1636 196.212 28.9434C196.212 27.7239 197.064 26.7856 198.341 26.7856C199.594 26.7856 200.468 27.7239 200.468 28.9434C200.468 30.1636 199.594 31.1015 198.341 31.1015ZM200.303 46.8639H196.355V32.087H200.303V46.8639Z" fill="#404041"/>
<path d="M211.345 47.0986C206.049 47.0986 203.425 43.7678 203.425 39.4748C203.425 35.1826 206.049 31.8518 211.321 31.8518C216.641 31.8518 219.266 35.1593 219.266 39.4748C219.266 43.7446 216.594 47.0986 211.345 47.0986ZM211.345 35.2298C208.555 35.2298 207.373 36.9184 207.373 39.4752C207.373 42.0087 208.602 43.7446 211.345 43.7446C214.111 43.7446 215.318 42.0087 215.318 39.4752C215.318 36.9421 214.112 35.2298 211.345 35.2298Z" fill="#404041"/>
<path d="M78.6841 60.426L92.5476 65.3397C87.9689 63.6439 84.1923 55.6212 84.1311 44.5118C84.0929 37.4738 70.9234 36.9634 69.6681 41.049C68.548 44.6963 70.2041 57.3308 78.6841 60.426Z" fill="url(#paint0_radial_3_321)"/>
<path d="M110.742 46.3791L115.696 32.626C113.987 37.1691 105.899 40.915 94.7018 40.9757C87.6067 41.0128 87.0922 54.0779 91.2102 55.3244C94.8881 56.4351 107.625 54.7922 110.742 46.3791Z" fill="url(#paint1_radial_3_321)"/>
<path d="M96.5832 14.5749L82.72 9.66089C87.2995 11.3574 91.0761 19.3801 91.137 30.4891C91.174 37.5268 104.345 38.0379 105.6 33.9519C106.72 30.3039 105.064 17.6694 96.5832 14.5749Z" fill="url(#paint2_radial_3_321)"/>
<path d="M64.5257 28.6217L59.5717 42.3752C61.2817 37.8317 69.3694 34.0858 80.5665 34.0251C87.6612 33.9872 88.1761 20.9233 84.0574 19.6768C80.3798 18.5657 67.6438 20.2089 64.5257 28.6217Z" fill="url(#paint3_radial_3_321)"/>
<path d="M69.0452 40.9039C69.1563 40.5424 69.3373 40.2057 69.58 39.8959C68.8834 39.0743 68.505 38.2358 68.4475 37.5769C65.1045 38.4229 61.233 41.2894 60.6063 43.1442C59.8715 45.321 62.8078 50.346 69.738 50.6438C68.5481 46.6429 68.4925 42.7047 69.0452 40.9039Z" fill="url(#paint4_radial_3_321)"/>
<path d="M94.1606 56.6165C92.9582 56.6165 91.9255 56.4969 91.174 56.27C90.7998 56.1564 90.4645 55.9727 90.1584 55.7394C89.3309 56.4313 88.4853 56.8059 87.8212 56.8629C88.6732 60.1798 91.563 64.0202 93.4315 64.6412C95.6288 65.3713 100.7 62.4534 100.993 55.5662C98.5564 56.2929 96.1304 56.6165 94.1606 56.6165Z" fill="url(#paint5_radial_3_321)"/>
<path d="M105.97 24.5769C107.159 28.5782 107.215 32.5157 106.662 34.3168C106.551 34.6779 106.37 35.0147 106.127 35.3248C106.825 36.146 107.203 36.9849 107.26 37.6438C110.604 36.7982 114.475 33.9309 115.101 32.0769C115.835 29.8993 112.899 24.8754 105.97 24.5769Z" fill="url(#paint6_radial_3_321)"/>
<path d="M81.5478 18.6034C82.7506 18.6034 83.7829 18.7234 84.5337 18.9503C84.9083 19.0639 85.2435 19.2481 85.5497 19.4813C86.3772 18.7894 87.2231 18.4148 87.8869 18.3578C87.0356 15.0406 84.1451 11.1998 82.2759 10.5796C80.0801 9.85018 75.0081 12.7673 74.7155 19.6546C77.1509 18.9267 79.5781 18.6034 81.5478 18.6034Z" fill="url(#paint7_radial_3_321)"/>
<defs>
<radialGradient id="paint0_radial_3_321" cx="0" cy="0" r="1" gradientUnits="userSpaceOnUse" gradientTransform="translate(86.7712 37.1311) scale(26.4034 26.1938)">
<stop stop-color="#98C93C"/>
<stop offset="0.4631" stop-color="#62BA46"/>
<stop offset="0.7091" stop-color="#349E49"/>
<stop offset="1" stop-color="#004E27"/>
</radialGradient>
<radialGradient id="paint1_radial_3_321" cx="0" cy="0" r="1" gradientUnits="userSpaceOnUse" gradientTransform="translate(86.7711 37.1309) scale(26.404 26.1944)">
<stop stop-color="#EC3593"/>
<stop offset="0.361" stop-color="#B51861"/>
<stop offset="0.7091" stop-color="#842676"/>
<stop offset="1" stop-color="#562B79"/>
</radialGradient>
<radialGradient id="paint2_radial_3_321" cx="0" cy="0" r="1" gradientUnits="userSpaceOnUse" gradientTransform="translate(86.7712 37.131) scale(26.4042 26.1946)">
<stop stop-color="#FCB813"/>
<stop offset="0.3879" stop-color="#FBAE17"/>
<stop offset="0.7091" stop-color="#F26F21"/>
<stop offset="1" stop-color="#B62126"/>
</radialGradient>
<radialGradient id="paint3_radial_3_321" cx="0" cy="0" r="1" gradientUnits="userSpaceOnUse" gradientTransform="translate(86.7713 37.131) scale(26.4048 26.1952)">
<stop stop-color="#00B8F1"/>
<stop offset="0.4631" stop-color="#007BC2"/>
<stop offset="0.7091" stop-color="#2F3191"/>
<stop offset="1" stop-color="#231F72"/>
</radialGradient>
<radialGradient id="paint4_radial_3_321" cx="0" cy="0" r="1" gradientUnits="userSpaceOnUse" gradientTransform="translate(70.4689 47.0827) scale(12.4269 12.3283)">
<stop stop-color="#00B8F1"/>
<stop offset="0.4631" stop-color="#007BC2"/>
<stop offset="0.7091" stop-color="#2F3191"/>
<stop offset="1" stop-color="#180F5E"/>
</radialGradient>
<radialGradient id="paint5_radial_3_321" cx="0" cy="0" r="1" gradientUnits="userSpaceOnUse" gradientTransform="translate(97.3455 54.952) scale(9.83395 9.75588)">
<stop stop-color="#98C93C"/>
<stop offset="0.4631" stop-color="#62BA46"/>
<stop offset="0.7091" stop-color="#349E49"/>
<stop offset="1" stop-color="#004E27"/>
</radialGradient>
<radialGradient id="paint6_radial_3_321" cx="0" cy="0" r="1" gradientUnits="userSpaceOnUse" gradientTransform="translate(104.836 29.5992) scale(11.9465 11.8517)">
<stop stop-color="#EC3593"/>
<stop offset="0.361" stop-color="#B51861"/>
<stop offset="0.7091" stop-color="#842676"/>
<stop offset="1" stop-color="#441C61"/>
</radialGradient>
<radialGradient id="paint7_radial_3_321" cx="0" cy="0" r="1" gradientUnits="userSpaceOnUse" gradientTransform="translate(78.6196 21.5128) scale(11.5503 11.4586)">
<stop stop-color="#FCB813"/>
<stop offset="0.3879" stop-color="#FBAE17"/>
<stop offset="0.7091" stop-color="#F26F21"/>
<stop offset="1" stop-color="#B62126"/>
</radialGradient>
</defs>
</svg>
