<svg width="684" height="632" viewBox="0 0 684 632" fill="none" xmlns="http://www.w3.org/2000/svg">
<circle cx="287.936" cy="345" r="287" fill="#D4EFF6"/>
<circle cx="442.5" cy="226.5" r="226.5" fill="#FEE095"/>
<g filter="url(#filter0_d_3_240)">
<circle cx="569" cy="425" r="60" fill="white"/>
</g>
<path d="M560 437C559.735 437 559.48 436.895 559.293 436.707C559.105 436.52 559 436.265 559 436V414C559 413.826 559.045 413.656 559.131 413.505C559.218 413.354 559.342 413.228 559.491 413.139C559.641 413.051 559.811 413.003 559.985 413C560.158 412.998 560.33 413.04 560.482 413.124L580.482 424.124C580.639 424.21 580.77 424.337 580.861 424.491C580.952 424.645 581 424.821 581 425C581 425.179 580.952 425.355 580.861 425.509C580.77 425.663 580.639 425.79 580.482 425.876L560.482 436.876C560.334 436.957 560.169 437 560 437Z" fill="black"/>
<defs>
<filter id="filter0_d_3_240" x="464" y="345" width="220" height="220" filterUnits="userSpaceOnUse" color-interpolation-filters="sRGB">
<feFlood flood-opacity="0" result="BackgroundImageFix"/>
<feColorMatrix in="SourceAlpha" type="matrix" values="0 0 0 0 0 0 0 0 0 0 0 0 0 0 0 0 0 0 127 0" result="hardAlpha"/>
<feOffset dx="5" dy="30"/>
<feGaussianBlur stdDeviation="25"/>
<feColorMatrix type="matrix" values="0 0 0 0 0.166667 0 0 0 0 0.165278 0 0 0 0 0.165278 0 0 0 0.05 0"/>
<feBlend mode="normal" in2="BackgroundImageFix" result="effect1_dropShadow_3_240"/>
<feBlend mode="normal" in="SourceGraphic" in2="effect1_dropShadow_3_240" result="shape"/>
</filter>
</defs>
</svg>
