<svg width="284" height="68" viewBox="0 0 284 68" fill="none" xmlns="http://www.w3.org/2000/svg">
<path d="M81.8547 18.5338H81.8553C82.9287 18.5338 83.9579 18.9608 84.7161 19.7204L96.1156 31.5813C96.4362 31.9352 96.9928 31.9352 97.3131 31.5813L108.066 20.3898C104.051 15.3296 97.8517 12.0806 90.8902 12.0806C78.7845 12.0806 68.9707 21.8943 68.9707 34.0004C68.9707 46.1064 78.7841 55.9198 90.8902 55.9198C96.5794 55.9198 101.762 53.7523 105.658 50.1983V35.0051C105.658 34.645 105.222 34.4645 104.967 34.7195L97.9295 42.807C97.2852 43.5469 96.1353 43.5469 95.491 42.807L88.453 34.7195C88.1984 34.4645 87.7628 34.645 87.7628 35.0051V50.6835C83.3724 50.6835 79.814 47.7588 79.814 43.3687V20.5744C79.8143 19.4473 80.7279 18.5338 81.8547 18.5338Z" fill="url(#paint0_linear_3_341)"/>
<path d="M116.774 39.3105H111.59C110.907 39.3105 110.354 39.8637 110.354 40.5464V45.7308C110.354 46.4135 110.907 46.9673 111.59 46.9673H116.774C117.457 46.9673 118.01 46.4135 118.01 45.7308V40.5464C118.01 39.8637 117.457 39.3105 116.774 39.3105Z" fill="url(#paint1_linear_3_341)"/>
<path d="M112.84 33.0062H116.408C117.027 33.0062 117.529 32.5044 117.529 31.8852V28.3169C117.529 27.6981 117.027 27.1963 116.408 27.1963H112.84C112.221 27.1963 111.719 27.6981 111.719 28.3169V31.8852C111.719 32.5047 112.221 33.0062 112.84 33.0062Z" fill="url(#paint2_linear_3_341)"/>
<path d="M121.738 33.6692H118.8C118.364 33.6692 118.01 34.0224 118.01 34.458V37.3973C118.01 37.8328 118.364 38.1861 118.8 38.1861H121.738C122.175 38.1861 122.528 37.8328 122.528 37.3973V34.458C122.528 34.0224 122.175 33.6692 121.738 33.6692Z" fill="url(#paint3_linear_3_341)"/>
<path d="M118.099 26.0352H120.198C120.536 26.0352 120.809 25.7615 120.809 25.4243V23.3251C120.809 22.9875 120.536 22.7141 120.198 22.7141H118.099C117.762 22.7141 117.489 22.9875 117.489 23.3251V25.4243C117.489 25.7619 117.762 26.0352 118.099 26.0352Z" fill="url(#paint4_linear_3_341)"/>
<path d="M96.71 44.3762C96.6359 44.3762 96.5649 44.3588 96.4914 44.3531C97.642 47.2026 98.3958 50.2395 98.6803 53.3978C100.841 52.5297 102.859 51.304 104.643 49.7441V36.6375L98.6946 43.4728C98.1948 44.0474 97.4713 44.3762 96.71 44.3762Z" fill="url(#paint5_linear_3_341)"/>
<path d="M90.89 13.0955C82.831 13.0955 75.8277 17.6821 72.3396 24.379C74.5775 24.8088 76.7409 25.4677 78.7996 26.3419V20.5748C78.7996 18.8901 80.1705 17.5185 81.8556 17.5185C83.188 17.5185 84.4922 18.0601 85.4473 19.0183L96.7142 30.7408L106.708 20.3392C102.725 15.724 97.0093 13.0955 90.89 13.0955Z" fill="url(#paint6_linear_3_341)"/>
<path d="M116.774 39.9746H111.589C111.275 39.9746 111.018 40.2323 111.018 40.5472V45.7308C111.018 46.0456 111.275 46.3034 111.589 46.3034H116.774C117.089 46.3034 117.345 46.0456 117.345 45.7308V40.5472C117.345 40.2323 117.089 39.9746 116.774 39.9746Z" fill="url(#paint7_linear_3_341)"/>
<path d="M112.839 32.3425H116.408C116.66 32.3425 116.864 32.1368 116.864 31.8855V28.3176C116.864 28.0666 116.66 27.8606 116.408 27.8606H112.839C112.588 27.8606 112.384 28.0663 112.384 28.3176V31.8855C112.384 32.1368 112.588 32.3425 112.839 32.3425Z" fill="url(#paint8_linear_3_341)"/>
<path d="M121.739 34.333H118.8C118.731 34.333 118.675 34.3894 118.675 34.4585V37.3978C118.675 37.4668 118.731 37.5226 118.8 37.5226H121.739C121.807 37.5226 121.863 37.4668 121.863 37.3978V34.4585C121.863 34.3894 121.807 34.333 121.739 34.333Z" fill="url(#paint9_linear_3_341)"/>
<path d="M120.146 23.3252H118.099V25.3713H120.146V23.3252Z" fill="url(#paint10_linear_3_341)"/>
<path d="M144.284 38.4618C143.881 39.2472 143.329 39.6083 142.798 39.6083C142.246 39.6083 141.736 39.2047 141.333 38.3979L138.573 32.7287V41.7527H135.621V26.6353H138.53L142.798 35.362L147.044 26.6353H149.953V41.753H147.002V32.7291L144.284 38.4618Z" fill="#323232"/>
<path d="M159.34 41.7532L158.49 40.2878L155.538 41.8804C152.141 41.8804 151.483 39.2474 151.483 35.7866C151.483 32.8143 151.653 29.7138 155.517 29.7138H158.426L161.186 29.5442V41.7532H159.34ZM158.427 32.1982H156.324C154.668 32.1982 154.244 33.5572 154.244 35.7866C154.244 38.0163 154.668 38.9717 156.324 38.9717L158.427 37.8881V32.1982Z" fill="#323232"/>
<path d="M170.36 41.7532L168.215 38.0373L166.198 41.7532H162.886L166.814 35.5744L163.035 29.6292H166.134L168.258 33.1325L170.318 29.6292H173.418L169.638 35.5744L173.46 41.7532H170.36Z" fill="#323232"/>
<path d="M182.336 41.7531L181.487 40.2877L178.536 41.8802C175.138 41.8802 174.48 39.2473 174.48 35.7864C174.48 32.8141 174.65 29.7137 178.514 29.7137H181.423V25.7856H184.184V41.7531H182.336ZM181.423 32.198H179.321C177.665 32.198 177.24 33.557 177.24 35.7864C177.24 38.0161 177.665 38.9715 179.321 38.9715L181.423 37.8879V32.198Z" fill="#323232"/>
<path d="M188.685 28.2062C187.369 28.2062 187.072 27.909 187.072 26.5926C187.072 25.2764 187.369 25 188.685 25C190.002 25 190.278 25.2764 190.278 26.5926C190.278 27.909 190.002 28.2062 188.685 28.2062ZM187.284 41.7532V30.0748H190.044V41.7532H187.284Z" fill="#323232"/>
<path d="M199.769 41.7533V34.0033C199.769 32.4954 199.026 32.1982 198.156 32.1982L195.671 33.2386V41.7533H192.911V29.6292H194.971L195.608 31.0728L199.005 29.5017C200.109 29.5017 200.789 29.8631 201.405 30.4785C202.296 31.3703 202.53 32.4107 202.53 33.6208V41.7533H199.769Z" fill="#323232"/>
<path d="M209.495 42.0501C205.334 42.0501 204.399 39.4603 204.399 35.638C204.399 32.1136 205.355 29.4592 209.495 29.4592C213.487 29.4592 214.613 31.8586 214.613 35.638C214.612 39.5028 213.72 42.0501 209.495 42.0501ZM211.852 35.1709C211.852 33.4301 211.618 31.9439 209.495 31.9439C207.627 31.9439 207.159 33.4726 207.159 35.0862V36.1902C207.159 37.7192 207.563 39.5664 209.495 39.5664C211.618 39.5664 211.852 37.7192 211.852 36.2752V35.1709Z" fill="#323232"/>
<defs>
<linearGradient id="paint0_linear_3_341" x1="150.013" y1="-12.0703" x2="86.0324" y2="37.785" gradientUnits="userSpaceOnUse">
<stop stop-color="#FAAF40"/>
<stop offset="0.5222" stop-color="#F16522"/>
<stop offset="1" stop-color="#E23D21"/>
</linearGradient>
<linearGradient id="paint1_linear_3_341" x1="163.244" y1="4.90882" x2="99.2628" y2="54.7645" gradientUnits="userSpaceOnUse">
<stop stop-color="#FAAF40"/>
<stop offset="0.5222" stop-color="#F16522"/>
<stop offset="1" stop-color="#E23D21"/>
</linearGradient>
<linearGradient id="paint2_linear_3_341" x1="157.149" y1="-3.03556" x2="93.1693" y2="46.819" gradientUnits="userSpaceOnUse">
<stop stop-color="#FAAF40"/>
<stop offset="0.5222" stop-color="#F16522"/>
<stop offset="1" stop-color="#E23D21"/>
</linearGradient>
<linearGradient id="paint3_linear_3_341" x1="161.831" y1="3.54209" x2="97.8533" y2="53.3945" gradientUnits="userSpaceOnUse">
<stop stop-color="#FAAF40"/>
<stop offset="0.5222" stop-color="#F16522"/>
<stop offset="1" stop-color="#E23D21"/>
</linearGradient>
<linearGradient id="paint4_linear_3_341" x1="156.023" y1="-4.35801" x2="92.0415" y2="45.4975" gradientUnits="userSpaceOnUse">
<stop stop-color="#FAAF40"/>
<stop offset="0.5222" stop-color="#F16522"/>
<stop offset="1" stop-color="#E23D21"/>
</linearGradient>
<linearGradient id="paint5_linear_3_341" x1="123.141" y1="9.56424" x2="93.2286" y2="59.2341" gradientUnits="userSpaceOnUse">
<stop stop-color="#FAAF40"/>
<stop offset="0.5222" stop-color="#F16522"/>
<stop offset="1" stop-color="#E23D21"/>
</linearGradient>
<linearGradient id="paint6_linear_3_341" x1="104.109" y1="-1.89855" x2="74.1961" y2="47.7719" gradientUnits="userSpaceOnUse">
<stop stop-color="#FAAF40"/>
<stop offset="0.5222" stop-color="#F16522"/>
<stop offset="1" stop-color="#E23D21"/>
</linearGradient>
<linearGradient id="paint7_linear_3_341" x1="131.406" y1="14.5388" x2="101.491" y2="64.2112" gradientUnits="userSpaceOnUse">
<stop stop-color="#FAAF40"/>
<stop offset="0.5222" stop-color="#F16522"/>
<stop offset="1" stop-color="#E23D21"/>
</linearGradient>
<linearGradient id="paint8_linear_3_341" x1="125.891" y1="11.3933" x2="95.9761" y2="61.0661" gradientUnits="userSpaceOnUse">
<stop stop-color="#FAAF40"/>
<stop offset="0.5222" stop-color="#F16522"/>
<stop offset="1" stop-color="#E23D21"/>
</linearGradient>
<linearGradient id="paint9_linear_3_341" x1="132.49" y1="15.6348" x2="102.577" y2="65.3056" gradientUnits="userSpaceOnUse">
<stop stop-color="#FAAF40"/>
<stop offset="0.5222" stop-color="#F16522"/>
<stop offset="1" stop-color="#E23D21"/>
</linearGradient>
<linearGradient id="paint10_linear_3_341" x1="126.783" y1="11.6289" x2="96.6673" y2="61.6362" gradientUnits="userSpaceOnUse">
<stop stop-color="#FAAF40"/>
<stop offset="0.5222" stop-color="#F16522"/>
<stop offset="1" stop-color="#E23D21"/>
</linearGradient>
</defs>
</svg>
